<?xml version="1.0" encoding="UTF-8"?>
<!DOCTYPE svg PUBLIC "-//W3C//DTD SVG 1.1//EN" "http://www.w3.org/Graphics/SVG/1.1/DTD/svg11.dtd">
<svg xmlns="http://www.w3.org/2000/svg" version="1.1" width="500px" height="500px" style="shape-rendering:geometricPrecision; text-rendering:geometricPrecision; image-rendering:optimizeQuality; fill-rule:evenodd; clip-rule:evenodd" xmlns:xlink="http://www.w3.org/1999/xlink">
<g><path style="opacity:1" fill="#fefdfd" d="M -0.5,-0.5 C 166.167,-0.5 332.833,-0.5 499.5,-0.5C 499.5,166.167 499.5,332.833 499.5,499.5C 332.833,499.5 166.167,499.5 -0.5,499.5C -0.5,332.833 -0.5,166.167 -0.5,-0.5 Z"/></g>
<g><path style="opacity:1" fill="#fcfbf9" d="M 169.5,59.5 C 178.549,72.928 186.049,87.2614 192,102.5C 193.642,107.402 194.809,112.402 195.5,117.5C 197.476,128.061 197.976,138.728 197,149.5C 194.596,163.735 193.262,178.068 193,192.5C 192.617,193.056 192.117,193.389 191.5,193.5C 189.211,188.023 187.378,182.356 186,176.5C 189.434,126.473 175.101,82.4732 143,44.5C 140.933,41.93 138.433,39.93 135.5,38.5C 135.167,39 134.833,39.5 134.5,40C 141.339,58.1831 147.172,76.6831 152,95.5C 155.453,116.145 158.786,136.811 162,157.5C 166.424,173.028 173.924,186.695 184.5,198.5C 184.611,199.117 184.944,199.617 185.5,200C 183.959,201.371 182.625,202.871 181.5,204.5C 179.488,207.205 177.488,209.872 175.5,212.5C 175.306,209.67 174.639,207.004 173.5,204.5C 170.446,204.646 168.446,203.313 167.5,200.5C 168.363,201.463 169.03,201.463 169.5,200.5C 140.438,157.314 124.772,109.647 122.5,57.5C 122.199,45.9103 123.699,34.5769 127,23.5C 130.025,22.2909 132.859,22.7909 135.5,25C 148.401,35.0669 159.734,46.5669 169.5,59.5 Z"/></g>
<g><path style="opacity:1" fill="#f8f4e9" d="M 287.5,33.5 C 267.263,30.6855 246.93,29.8522 226.5,31C 215.95,31.7682 205.616,33.6015 195.5,36.5C 195.804,35.8501 196.137,35.1835 196.5,34.5C 226.268,27.5908 256.268,26.7575 286.5,32C 287.056,32.3826 287.389,32.8826 287.5,33.5 Z"/></g>
<g><path style="opacity:1" fill="#b79672" d="M 287.5,33.5 C 289.859,34.176 292.192,35.0093 294.5,36C 289.833,41.3333 285.167,46.6667 280.5,52C 262.215,50.6592 243.882,50.3259 225.5,51C 214.848,52.4548 204.348,54.6215 194,57.5C 187.711,53.0456 181.878,48.0456 176.5,42.5C 182.553,39.7051 188.886,37.7051 195.5,36.5C 205.616,33.6015 215.95,31.7682 226.5,31C 246.93,29.8522 267.263,30.6855 287.5,33.5 Z"/></g>
<g><path style="opacity:1" fill="#6b554c" d="M 191.5,193.5 C 189.427,195.58 187.093,197.246 184.5,198.5C 173.924,186.695 166.424,173.028 162,157.5C 158.786,136.811 155.453,116.145 152,95.5C 147.172,76.6831 141.339,58.1831 134.5,40C 134.833,39.5 135.167,39 135.5,38.5C 138.433,39.93 140.933,41.93 143,44.5C 175.101,82.4732 189.434,126.473 186,176.5C 187.378,182.356 189.211,188.023 191.5,193.5 Z"/></g>
<g><path style="opacity:1" fill="#b7956f" d="M 349.5,275.5 C 347.188,276.341 344.855,277.341 342.5,278.5C 340.025,272.219 336.525,266.553 332,261.5C 334.069,267.338 335.903,273.338 337.5,279.5C 329.112,281.739 320.779,284.406 312.5,287.5C 310.812,283.812 308.145,281.145 304.5,279.5C 304.167,278.833 303.833,278.167 303.5,277.5C 307.902,275.073 312.569,272.906 317.5,271C 321.696,266.36 323.529,260.86 323,254.5C 323.667,248.167 323.667,241.833 323,235.5C 322.065,232.898 320.232,231.398 317.5,231C 309.464,228.807 302.964,230.973 298,237.5C 296.235,240.032 294.735,242.699 293.5,245.5C 292.356,247.1 291.189,248.767 290,250.5C 289.93,245.021 290.93,239.687 293,234.5C 297.032,231.145 298.032,227.145 296,222.5C 295.097,221.299 293.931,220.465 292.5,220C 285.532,218.538 279.199,219.871 273.5,224C 263.945,233.269 257.612,244.436 254.5,257.5C 249.051,230.407 232.384,217.407 204.5,218.5C 201.5,218.667 198.5,218.833 195.5,219C 187.557,220.614 187.557,222.28 195.5,224C 202.959,230.875 205.959,239.375 204.5,249.5C 202.928,245.974 201.428,242.307 200,238.5C 198.167,235.333 195.667,232.833 192.5,231C 187.833,230.333 183.167,230.333 178.5,231C 176.413,231.792 174.579,232.959 173,234.5C 171.867,244.985 172.533,255.318 175,265.5C 177.195,270.523 181.028,273.523 186.5,274.5C 189.912,275.075 192.912,276.408 195.5,278.5C 194.167,279.167 193.167,280.167 192.5,281.5C 189.833,283.5 187.5,285.833 185.5,288.5C 185.167,288.5 184.833,288.5 184.5,288.5C 173.833,283.167 163.167,277.833 152.5,272.5C 157.48,264.547 161.98,256.214 166,247.5C 167.212,240.913 167.879,234.246 168,227.5C 169.986,222.195 172.486,217.195 175.5,212.5C 177.488,209.872 179.488,207.205 181.5,204.5C 183.957,203.272 186.29,202.105 188.5,201C 189.022,203.2 188.355,205.2 186.5,207C 186.481,208.792 186.814,209.292 187.5,208.5C 200.158,198.42 214.325,191.086 230,186.5C 230.684,185.216 230.517,184.049 229.5,183C 226.833,182.333 224.167,182.333 221.5,183C 213.198,186.148 205.532,190.315 198.5,195.5C 197.542,195.047 196.708,194.381 196,193.5C 195.667,193.833 195.333,194.167 195,194.5C 194.833,192.333 194.667,190.167 194.5,188C 197.571,166.266 198.738,144.433 198,122.5C 197.901,120.347 197.067,118.681 195.5,117.5C 194.809,112.402 193.642,107.402 192,102.5C 186.049,87.2614 178.549,72.928 169.5,59.5C 169.489,57.9826 168.823,56.8159 167.5,56C 168.345,54.4419 167.679,53.4419 165.5,53C 166.167,52.6667 166.833,52.3333 167.5,52C 165.926,51.6643 164.592,50.8309 163.5,49.5C 164.328,48.5853 165.328,47.9186 166.5,47.5C 170.787,49.7958 174.787,52.4625 178.5,55.5C 180.5,56.8333 182.167,58.5 183.5,60.5C 184.171,61.8471 184.171,63.0138 183.5,64C 186.655,64.928 189.321,67.0947 191.5,70.5C 191.333,70.8333 191.167,71.1667 191,71.5C 190,70.5 189,69.5 188,68.5C 187.833,69.5 187.667,70.5 187.5,71.5C 187.64,73.0296 188.307,74.0296 189.5,74.5C 208.84,103.986 222.673,135.986 231,170.5C 231.497,167.854 231.664,165.187 231.5,162.5C 231.151,158.936 231.817,155.602 233.5,152.5C 233.833,152.667 234.167,152.833 234.5,153C 236.554,159.042 238.554,164.875 240.5,170.5C 245.292,170.349 249.959,171.016 254.5,172.5C 255.298,172.043 255.631,171.376 255.5,170.5C 254.605,158.193 254.272,145.859 254.5,133.5C 257.906,110.352 266.073,89.0188 279,69.5C 294.743,45.747 313.41,24.4136 335,5.5C 341.214,22.5676 344.881,40.2343 346,58.5C 347.812,88.1833 345.478,117.517 339,146.5C 332.387,167.174 324.887,187.508 316.5,207.5C 319.982,214.464 323.482,221.464 327,228.5C 327.114,235.579 327.781,242.579 329,249.5C 336.091,258.046 342.925,266.712 349.5,275.5 Z"/></g>
<g><path style="opacity:1" fill="#6a554c" d="M 327.5,44.5 C 331.997,72.952 331.163,101.285 325,129.5C 320.536,148.028 314.536,166.028 307,183.5C 305.334,186.331 303.168,188.664 300.5,190.5C 299.5,189.167 298.5,187.833 297.5,186.5C 295.941,175.572 294.941,164.572 294.5,153.5C 294.223,135.274 298.056,117.94 306,101.5C 315.657,83.3516 322.824,64.3516 327.5,44.5 Z"/></g>
<g><path style="opacity:1" fill="#b99d79" d="M 183.5,60.5 C 208.785,83.7052 225.952,112.039 235,145.5C 237.283,153.748 239.116,162.082 240.5,170.5C 238.554,164.875 236.554,159.042 234.5,153C 234.167,152.833 233.833,152.667 233.5,152.5C 231.817,155.602 231.151,158.936 231.5,162.5C 227.742,134.069 217.575,108.069 201,84.5C 197.368,79.8663 193.368,75.533 189,71.5C 188.53,72.5768 188.697,73.5768 189.5,74.5C 188.307,74.0296 187.64,73.0296 187.5,71.5C 187.667,70.5 187.833,69.5 188,68.5C 189,69.5 190,70.5 191,71.5C 191.167,71.1667 191.333,70.8333 191.5,70.5C 189.321,67.0947 186.655,64.928 183.5,64C 184.171,63.0138 184.171,61.8471 183.5,60.5 Z"/></g>
<g><path style="opacity:1" fill="#fbfaf8" d="M 300.5,190.5 C 303.168,188.664 305.334,186.331 307,183.5C 314.536,166.028 320.536,148.028 325,129.5C 331.163,101.285 331.997,72.952 327.5,44.5C 327.631,43.6236 327.298,42.9569 326.5,42.5C 301.231,71.8079 290.064,105.808 293,144.5C 293.181,147.695 293.681,150.695 294.5,153.5C 294.941,164.572 295.941,175.572 297.5,186.5C 293.63,185.647 290.464,183.647 288,180.5C 272.769,137.308 277.102,96.3077 301,57.5C 308.968,43.8615 318.801,31.6948 330.5,21C 331.449,20.3828 332.282,20.5494 333,21.5C 335.061,30.0403 336.394,38.7069 337,47.5C 339.604,77.5916 338.937,107.592 335,137.5C 332.177,152.131 327.51,166.131 321,179.5C 315.898,186.779 309.065,191.446 300.5,193.5C 300.5,192.5 300.5,191.5 300.5,190.5 Z"/></g>
<g><path style="opacity:1" fill="#b0906e" d="M 327.5,44.5 C 322.824,64.3516 315.657,83.3516 306,101.5C 298.056,117.94 294.223,135.274 294.5,153.5C 293.681,150.695 293.181,147.695 293,144.5C 290.064,105.808 301.231,71.8079 326.5,42.5C 327.298,42.9569 327.631,43.6236 327.5,44.5 Z"/></g>
<g><path style="opacity:1" fill="#faf7f1" d="M 231.5,162.5 C 231.664,165.187 231.497,167.854 231,170.5C 222.673,135.986 208.84,103.986 189.5,74.5C 188.697,73.5768 188.53,72.5768 189,71.5C 193.368,75.533 197.368,79.8663 201,84.5C 217.575,108.069 227.742,134.069 231.5,162.5 Z"/></g>
<g><path style="opacity:1" fill="#b5997a" d="M 195.5,117.5 C 197.067,118.681 197.901,120.347 198,122.5C 198.738,144.433 197.571,166.266 194.5,188C 194.667,190.167 194.833,192.333 195,194.5C 195.333,194.167 195.667,193.833 196,193.5C 196.708,194.381 197.542,195.047 198.5,195.5C 194.435,199.559 190.768,203.893 187.5,208.5C 186.814,209.292 186.481,208.792 186.5,207C 188.355,205.2 189.022,203.2 188.5,201C 186.29,202.105 183.957,203.272 181.5,204.5C 182.625,202.871 183.959,201.371 185.5,200C 184.944,199.617 184.611,199.117 184.5,198.5C 187.093,197.246 189.427,195.58 191.5,193.5C 192.117,193.389 192.617,193.056 193,192.5C 193.262,178.068 194.596,163.735 197,149.5C 197.976,138.728 197.476,128.061 195.5,117.5 Z"/></g>
<g><path style="opacity:1" fill="#bba186" d="M 254.5,133.5 C 254.272,145.859 254.605,158.193 255.5,170.5C 253.138,163.832 252.138,156.832 252.5,149.5C 252.318,143.914 252.985,138.58 254.5,133.5 Z"/></g>
<g><path style="opacity:1" fill="#b69978" d="M 178.5,55.5 C 174.787,52.4625 170.787,49.7958 166.5,47.5C 165.328,47.9186 164.328,48.5853 163.5,49.5C 164.592,50.8309 165.926,51.6643 167.5,52C 166.833,52.3333 166.167,52.6667 165.5,53C 167.679,53.4419 168.345,54.4419 167.5,56C 168.823,56.8159 169.489,57.9826 169.5,59.5C 159.734,46.5669 148.401,35.0669 135.5,25C 132.859,22.7909 130.025,22.2909 127,23.5C 123.699,34.5769 122.199,45.9103 122.5,57.5C 124.772,109.647 140.438,157.314 169.5,200.5C 169.03,201.463 168.363,201.463 167.5,200.5C 149.856,180.219 137.689,156.885 131,130.5C 122.282,100.788 118.615,70.4551 120,39.5C 120.821,32.7263 122.155,26.0597 124,19.5C 125.32,15.8184 127.82,14.3184 131.5,15C 137.677,17.9193 143.344,21.5859 148.5,26C 159.005,35.3388 169.005,45.1721 178.5,55.5 Z"/></g>
<g><path style="opacity:1" fill="#f9f6f0" d="M 267.5,182.5 C 275.47,183.657 282.803,186.49 289.5,191C 295.959,195.79 302.126,200.957 308,206.5C 308.667,207.167 308.667,207.833 308,208.5C 294.858,198.847 280.692,191.181 265.5,185.5C 266.193,184.482 266.859,183.482 267.5,182.5 Z"/></g>
<g><path style="opacity:1" fill="#faf6ef" d="M 187.5,208.5 C 190.768,203.893 194.435,199.559 198.5,195.5C 205.532,190.315 213.198,186.148 221.5,183C 224.167,182.333 226.833,182.333 229.5,183C 230.517,184.049 230.684,185.216 230,186.5C 214.325,191.086 200.158,198.42 187.5,208.5 Z"/></g>
<g><path style="opacity:1" fill="#f7f1e7" d="M 447.5,190.5 C 457.463,217.202 460.963,244.869 458,273.5C 457.571,278.047 456.738,282.381 455.5,286.5C 459.124,261.218 457.957,236.218 452,211.5C 451.346,212.696 450.846,212.696 450.5,211.5C 450.931,210.707 451.265,209.873 451.5,209C 449.905,202.899 448.572,196.732 447.5,190.5 Z"/></g>
<g><path style="opacity:1" fill="#fcfbfa" d="M 293.5,245.5 C 295.176,246.183 295.843,247.517 295.5,249.5C 295.5,250.5 295.5,251.5 295.5,252.5C 294.896,260.601 292.229,268.101 287.5,275C 289.847,275.334 292.181,275.167 294.5,274.5C 296.467,274.261 298.301,274.594 300,275.5C 301.085,273.343 302.251,273.176 303.5,275C 301.381,275.342 301.047,276.175 302.5,277.5C 297.463,282.21 293.129,287.543 289.5,293.5C 290.002,294.521 290.668,294.688 291.5,294C 295.733,289 300.067,284.166 304.5,279.5C 308.145,281.145 310.812,283.812 312.5,287.5C 303.954,292.708 296.287,299.041 289.5,306.5C 290.365,307.583 291.365,307.749 292.5,307C 299.181,301.663 306.181,296.83 313.5,292.5C 318.032,293.84 321.032,296.84 322.5,301.5C 321.833,302.167 321.167,302.833 320.5,303.5C 312.083,305.806 303.916,308.806 296,312.5C 295.568,313.6 296.068,314.267 297.5,314.5C 306.48,311.562 315.48,308.729 324.5,306C 329.118,305.006 333.785,304.506 338.5,304.5C 340.027,304.427 341.027,305.094 341.5,306.5C 342.43,310.4 342.763,314.4 342.5,318.5C 329.136,318.203 315.803,318.536 302.5,319.5C 301.833,319.833 301.167,320.167 300.5,320.5C 312.148,321.499 323.814,321.832 335.5,321.5C 337.042,322.163 338.709,322.83 340.5,323.5C 339.333,325.833 338.167,328.167 337,330.5C 335.989,331.337 334.822,331.67 333.5,331.5C 323.799,329.127 313.966,327.46 304,326.5C 302.833,326.833 301.667,327.167 300.5,327.5C 300.709,328.086 301.043,328.586 301.5,329C 311.883,330.976 322.216,333.143 332.5,335.5C 331.559,337.772 330.226,339.772 328.5,341.5C 327.5,341.5 326.5,341.5 325.5,341.5C 316.859,337.171 307.859,334.504 298.5,333.5C 306.712,337.439 315.045,341.106 323.5,344.5C 324.167,344.5 324.5,344.833 324.5,345.5C 322.863,347.475 321.196,349.475 319.5,351.5C 318.391,351.443 317.391,351.11 316.5,350.5C 310.315,346.149 303.815,342.149 297,338.5C 295.563,340.221 296.063,341.721 298.5,343C 303.056,346.107 307.723,348.94 312.5,351.5C 313.5,352.833 314.5,354.167 315.5,355.5C 313.167,357.167 311.167,359.167 309.5,361.5C 302.728,356.572 296.061,351.406 289.5,346C 288.365,345.251 287.365,345.417 286.5,346.5C 293.161,352.494 299.494,358.827 305.5,365.5C 292.847,375.827 278.513,382.993 262.5,387C 244.753,390.61 228.086,388.11 212.5,379.5C 213.141,378.518 213.807,377.518 214.5,376.5C 214,376.167 213.5,375.833 213,375.5C 211.357,376.315 209.857,377.315 208.5,378.5C 198.437,373.143 189.104,366.81 180.5,359.5C 188.508,354.164 196.508,348.83 204.5,343.5C 203.635,342.417 202.635,342.251 201.5,343C 193.441,347.022 185.775,351.522 178.5,356.5C 178.167,356.5 177.833,356.5 177.5,356.5C 175.5,353.833 173.5,351.167 171.5,348.5C 181.958,344.625 192.292,340.459 202.5,336C 190.612,337.016 179.279,340.183 168.5,345.5C 166.076,342.992 164.41,339.992 163.5,336.5C 175.073,333.904 186.74,331.738 198.5,330C 198.957,329.586 199.291,329.086 199.5,328.5C 196.216,327.343 192.882,327.176 189.5,328C 180.497,329.568 171.497,331.068 162.5,332.5C 159.339,330.08 157.673,326.747 157.5,322.5C 171.038,321.677 184.705,321.344 198.5,321.5C 194.701,319.907 190.701,319.074 186.5,319C 176.172,318.5 165.839,318.334 155.5,318.5C 155.091,313.308 155.758,308.308 157.5,303.5C 159.5,303.5 161.5,303.5 163.5,303.5C 172.423,306.155 181.423,308.989 190.5,312C 194.446,313.324 198.446,313.991 202.5,314C 199.938,311.587 196.938,309.92 193.5,309C 185.302,305.989 176.969,303.489 168.5,301.5C 167.07,300.463 165.403,299.796 163.5,299.5C 166.968,296.893 170.634,294.393 174.5,292C 176.81,291.503 179.143,291.337 181.5,291.5C 189.964,296.239 197.964,301.739 205.5,308C 206.635,308.749 207.635,308.583 208.5,307.5C 201.713,300.041 194.046,293.708 185.5,288.5C 187.5,285.833 189.833,283.5 192.5,281.5C 197.839,286.173 202.839,291.173 207.5,296.5C 208.583,295.635 208.749,294.635 208,293.5C 203.825,288.469 199.659,283.469 195.5,278.5C 192.912,276.408 189.912,275.075 186.5,274.5C 186.5,273.167 187.167,272.5 188.5,272.5C 195.998,273.047 203.332,274.214 210.5,276C 205.823,269.848 202.823,263.015 201.5,255.5C 201.337,253.143 201.503,250.81 202,248.5C 202.249,249.624 202.749,250.624 203.5,251.5C 204.298,251.043 204.631,250.376 204.5,249.5C 205.959,239.375 202.959,230.875 195.5,224C 187.557,222.28 187.557,220.614 195.5,219C 198.5,218.833 201.5,218.667 204.5,218.5C 232.384,217.407 249.051,230.407 254.5,257.5C 257.612,244.436 263.945,233.269 273.5,224C 279.199,219.871 285.532,218.538 292.5,220C 293.931,220.465 295.097,221.299 296,222.5C 298.032,227.145 297.032,231.145 293,234.5C 290.93,239.687 289.93,245.021 290,250.5C 291.189,248.767 292.356,247.1 293.5,245.5 Z"/></g>
<g><path style="opacity:1" fill="#b69571" d="M 474.5,210.5 C 481.09,246.876 479.424,282.876 469.5,318.5C 457.645,355.99 437.645,388.324 409.5,415.5C 409.053,412.476 408.22,412.143 407,414.5C 406.833,413.833 406.667,413.167 406.5,412.5C 407.995,410.01 408.995,407.343 409.5,404.5C 410.552,404.351 411.552,404.517 412.5,405C 411.346,405.914 411.513,406.747 413,407.5C 414.584,406.139 416.418,405.472 418.5,405.5C 418.367,402.104 417.367,401.771 415.5,404.5C 412.889,400.558 413.222,397.558 416.5,395.5C 411.361,394.803 411.195,393.47 416,391.5C 416.667,390.167 416.667,388.833 416,387.5C 415.333,388.833 414.667,390.167 414,391.5C 413.075,390.953 412.242,390.287 411.5,389.5C 412.35,386.739 411.35,386.072 408.5,387.5C 408.167,388 407.833,388.5 407.5,389C 409.285,390.974 410.285,392.974 410.5,395C 409.234,395.309 408.067,395.809 407,396.5C 405.933,395.809 404.766,395.309 403.5,395C 404.252,394.329 404.586,393.496 404.5,392.5C 404.498,388.489 403.332,384.822 401,381.5C 391.884,367.881 380.384,356.881 366.5,348.5C 367.77,344.525 366.103,342.025 361.5,341C 352.292,337.652 342.959,334.819 333.5,332.5C 333.5,332.167 333.5,331.833 333.5,331.5C 334.822,331.67 335.989,331.337 337,330.5C 338.167,328.167 339.333,325.833 340.5,323.5C 338.709,322.83 337.042,322.163 335.5,321.5C 343.002,321.923 350.335,322.59 357.5,323.5C 354.779,324.696 353.613,326.696 354,329.5C 363.881,337.716 374.048,345.549 384.5,353C 395.196,361.935 403.863,372.435 410.5,384.5C 435.094,356.449 450.094,323.782 455.5,286.5C 456.738,282.381 457.571,278.047 458,273.5C 460.963,244.869 457.463,217.202 447.5,190.5C 430.659,143.323 400.659,106.99 357.5,81.5C 356.818,73.943 356.151,66.443 355.5,59C 365.474,62.6027 374.808,67.6027 383.5,74C 430.354,108.378 460.688,153.878 474.5,210.5 Z"/></g>
<g><path style="opacity:1" fill="#f9f5ec" d="M 47.5,187.5 C 46.4448,196.158 44.2782,204.492 41,212.5C 39.7373,223.003 38.5706,233.503 37.5,244C 37.4329,253.73 37.5996,263.564 38,273.5C 38.25,280.5 39.4167,287.334 41.5,294C 41.4301,294.765 41.0967,295.265 40.5,295.5C 31.9803,258.806 34.3137,222.806 47.5,187.5 Z"/></g>
<g><path style="opacity:1" fill="#f7f4ef" d="M 204.5,249.5 C 204.631,250.376 204.298,251.043 203.5,251.5C 202.749,250.624 202.249,249.624 202,248.5C 201.503,250.81 201.337,253.143 201.5,255.5C 200.71,254.391 200.21,253.058 200,251.5C 199.664,257.348 198.164,262.848 195.5,268C 187.806,270.737 182.64,268.237 180,260.5C 179.333,255.167 179.333,249.833 180,244.5C 181.136,238.693 184.636,235.86 190.5,236C 185.669,234.087 180.836,234.254 176,236.5C 175.044,245.955 175.71,255.288 178,264.5C 180.263,268.946 183.763,271.612 188.5,272.5C 187.167,272.5 186.5,273.167 186.5,274.5C 181.028,273.523 177.195,270.523 175,265.5C 172.533,255.318 171.867,244.985 173,234.5C 174.579,232.959 176.413,231.792 178.5,231C 183.167,230.333 187.833,230.333 192.5,231C 195.667,232.833 198.167,235.333 200,238.5C 201.428,242.307 202.928,245.974 204.5,249.5 Z"/></g>
<g><path style="opacity:1" fill="#b99877" d="M 201.5,255.5 C 202.823,263.015 205.823,269.848 210.5,276C 203.332,274.214 195.998,273.047 188.5,272.5C 183.763,271.612 180.263,268.946 178,264.5C 175.71,255.288 175.044,245.955 176,236.5C 180.836,234.254 185.669,234.087 190.5,236C 184.636,235.86 181.136,238.693 180,244.5C 179.333,249.833 179.333,255.167 180,260.5C 182.64,268.237 187.806,270.737 195.5,268C 198.164,262.848 199.664,257.348 200,251.5C 200.21,253.058 200.71,254.391 201.5,255.5 Z"/></g>
<g><path style="opacity:1" fill="#70584b" d="M 296.5,260.5 C 295.527,258.052 295.194,255.385 295.5,252.5C 295.5,251.5 295.5,250.5 295.5,249.5C 297.008,245.148 299.508,241.482 303,238.5C 312.383,244.14 315.05,252.14 311,262.5C 309.596,266.279 307.096,267.279 303.5,265.5C 300.806,261.446 298.639,257.112 297,252.5C 296.503,255.146 296.336,257.813 296.5,260.5 Z"/></g>
<g><path style="opacity:1" fill="#715b4e" d="M 191.5,238.5 C 192.675,238.281 193.675,238.614 194.5,239.5C 196.556,242.445 198.223,245.612 199.5,249C 198.059,253.989 196.226,258.822 194,263.5C 191,266.167 188,266.167 185,263.5C 180.154,253.222 182.321,244.889 191.5,238.5 Z"/></g>
<g><path style="opacity:1" fill="#f7f3ef" d="M 303.5,277.5 C 303.167,277.5 302.833,277.5 302.5,277.5C 301.047,276.175 301.381,275.342 303.5,275C 302.251,273.176 301.085,273.343 300,275.5C 298.301,274.594 296.467,274.261 294.5,274.5C 298.619,273.262 302.953,272.429 307.5,272C 314.455,270.711 318.289,266.545 319,259.5C 319.667,251.833 319.667,244.167 319,236.5C 317.004,234.941 314.671,234.274 312,234.5C 303.775,235.04 303.608,236.207 311.5,238C 316.033,244.068 317.533,250.902 316,258.5C 314.754,267.034 309.921,270.534 301.5,269C 298.892,266.602 297.225,263.769 296.5,260.5C 296.336,257.813 296.503,255.146 297,252.5C 298.639,257.112 300.806,261.446 303.5,265.5C 307.096,267.279 309.596,266.279 311,262.5C 315.05,252.14 312.383,244.14 303,238.5C 299.508,241.482 297.008,245.148 295.5,249.5C 295.843,247.517 295.176,246.183 293.5,245.5C 294.735,242.699 296.235,240.032 298,237.5C 302.964,230.973 309.464,228.807 317.5,231C 320.232,231.398 322.065,232.898 323,235.5C 323.667,241.833 323.667,248.167 323,254.5C 323.529,260.86 321.696,266.36 317.5,271C 312.569,272.906 307.902,275.073 303.5,277.5 Z"/></g>
<g><path style="opacity:1" fill="#b99b79" d="M 294.5,274.5 C 292.181,275.167 289.847,275.334 287.5,275C 292.229,268.101 294.896,260.601 295.5,252.5C 295.194,255.385 295.527,258.052 296.5,260.5C 297.225,263.769 298.892,266.602 301.5,269C 309.921,270.534 314.754,267.034 316,258.5C 317.533,250.902 316.033,244.068 311.5,238C 303.608,236.207 303.775,235.04 312,234.5C 314.671,234.274 317.004,234.941 319,236.5C 319.667,244.167 319.667,251.833 319,259.5C 318.289,266.545 314.455,270.711 307.5,272C 302.953,272.429 298.619,273.262 294.5,274.5 Z"/></g>
<g><path style="opacity:1" fill="#f7f3ef" d="M 342.5,278.5 C 340.883,279.038 339.216,279.371 337.5,279.5C 335.903,273.338 334.069,267.338 332,261.5C 336.525,266.553 340.025,272.219 342.5,278.5 Z"/></g>
<g><path style="opacity:1" fill="#816750" d="M 152.5,272.5 C 163.167,277.833 173.833,283.167 184.5,288.5C 182.735,289.461 180.735,289.795 178.5,289.5C 169.125,285.144 159.792,280.811 150.5,276.5C 148.531,274.841 146.531,273.175 144.5,271.5C 145,271.167 145.5,270.833 146,270.5C 148.047,271.609 150.213,272.276 152.5,272.5 Z"/></g>
<g><path style="opacity:1" fill="#f9f7f4" d="M 341.5,282.5 C 343.124,282.36 344.29,283.027 345,284.5C 346.895,289.325 347.728,294.325 347.5,299.5C 345.833,299.5 344.167,299.5 342.5,299.5C 339.984,294.797 338.317,289.797 337.5,284.5C 338.514,283.326 339.847,282.66 341.5,282.5 Z"/></g>
<g><path style="opacity:1" fill="#b59475" d="M 351.5,279.5 C 354.217,285.314 356.551,291.314 358.5,297.5C 362.982,298.167 367.316,298.834 371.5,299.5C 363.5,299.5 355.5,299.5 347.5,299.5C 347.728,294.325 346.895,289.325 345,284.5C 344.29,283.027 343.124,282.36 341.5,282.5C 344.619,281.13 347.952,280.13 351.5,279.5 Z"/></g>
<g><path style="opacity:1" fill="#b69572" d="M 150.5,276.5 C 159.792,280.811 169.125,285.144 178.5,289.5C 179.5,290.167 180.5,290.833 181.5,291.5C 179.143,291.337 176.81,291.503 174.5,292C 170.634,294.393 166.968,296.893 163.5,299.5C 157.836,299.039 152.503,297.706 147.5,295.5C 150.614,294.909 153.114,293.242 155,290.5C 155.432,289.4 154.932,288.733 153.5,288.5C 149.939,289.74 146.939,291.74 144.5,294.5C 143.5,294.5 142.5,294.5 141.5,294.5C 144.008,288.151 147.008,282.151 150.5,276.5 Z"/></g>
<g><path style="opacity:1" fill="#847057" d="M 302.5,277.5 C 302.833,277.5 303.167,277.5 303.5,277.5C 303.833,278.167 304.167,278.833 304.5,279.5C 300.067,284.166 295.733,289 291.5,294C 290.668,294.688 290.002,294.521 289.5,293.5C 293.129,287.543 297.463,282.21 302.5,277.5 Z"/></g>
<g><path style="opacity:1" fill="#7d6851" d="M 351.5,279.5 C 347.952,280.13 344.619,281.13 341.5,282.5C 339.847,282.66 338.514,283.326 337.5,284.5C 329.085,286.194 321.085,288.86 313.5,292.5C 306.181,296.83 299.181,301.663 292.5,307C 291.365,307.749 290.365,307.583 289.5,306.5C 296.287,299.041 303.954,292.708 312.5,287.5C 320.779,284.406 329.112,281.739 337.5,279.5C 339.216,279.371 340.883,279.038 342.5,278.5C 344.855,277.341 347.188,276.341 349.5,275.5C 354.668,274.584 359.834,273.584 365,272.5C 365.833,272.833 366.667,273.167 367.5,273.5C 362.311,276.115 356.978,278.115 351.5,279.5 Z"/></g>
<g><path style="opacity:1" fill="#b59370" d="M 337.5,284.5 C 338.317,289.797 339.984,294.797 342.5,299.5C 335.891,300.298 329.224,300.964 322.5,301.5C 321.032,296.84 318.032,293.84 313.5,292.5C 321.085,288.86 329.085,286.194 337.5,284.5 Z"/></g>
<g><path style="opacity:1" fill="#88735f" d="M 195.5,278.5 C 199.659,283.469 203.825,288.469 208,293.5C 208.749,294.635 208.583,295.635 207.5,296.5C 202.839,291.173 197.839,286.173 192.5,281.5C 193.167,280.167 194.167,279.167 195.5,278.5 Z"/></g>
<g><path style="opacity:1" fill="#f9f6f1" d="M 147.5,295.5 C 146.209,295.737 145.209,295.404 144.5,294.5C 146.939,291.74 149.939,289.74 153.5,288.5C 154.932,288.733 155.432,289.4 155,290.5C 153.114,293.242 150.614,294.909 147.5,295.5 Z"/></g>
<g><path style="opacity:1" fill="#f8f2e6" d="M 474.5,210.5 C 475.693,210.97 476.36,211.97 476.5,213.5C 477.229,219.285 478.562,224.785 480.5,230C 480.091,245.785 479.591,261.952 479,278.5C 478.17,288.643 476.503,298.643 474,308.5C 473.148,312.264 471.648,315.597 469.5,318.5C 479.424,282.876 481.09,246.876 474.5,210.5 Z"/></g>
<g><path style="opacity:1" fill="#7b6c5d" d="M 184.5,288.5 C 184.833,288.5 185.167,288.5 185.5,288.5C 194.046,293.708 201.713,300.041 208.5,307.5C 207.635,308.583 206.635,308.749 205.5,308C 197.964,301.739 189.964,296.239 181.5,291.5C 180.5,290.833 179.5,290.167 178.5,289.5C 180.735,289.795 182.735,289.461 184.5,288.5 Z"/></g>
<g><path style="opacity:1" fill="#816954" d="M 141.5,294.5 C 142.5,294.5 143.5,294.5 144.5,294.5C 145.209,295.404 146.209,295.737 147.5,295.5C 152.503,297.706 157.836,299.039 163.5,299.5C 165.403,299.796 167.07,300.463 168.5,301.5C 166.833,302.167 165.167,302.833 163.5,303.5C 161.5,303.5 159.5,303.5 157.5,303.5C 153.094,301.652 148.427,300.319 143.5,299.5C 136.217,298.098 129.217,295.932 122.5,293C 128.846,293.056 135.179,293.556 141.5,294.5 Z"/></g>
<g><path style="opacity:1" fill="#7e6650" d="M 342.5,299.5 C 344.167,299.5 345.833,299.5 347.5,299.5C 355.5,299.5 363.5,299.5 371.5,299.5C 372.738,299.81 372.738,300.31 371.5,301C 367.514,301.499 363.514,301.666 359.5,301.5C 354.477,301.927 349.477,302.593 344.5,303.5C 344.709,304.086 345.043,304.586 345.5,305C 344.099,305.41 342.766,305.91 341.5,306.5C 341.027,305.094 340.027,304.427 338.5,304.5C 333.076,301.976 327.576,301.976 322,304.5C 321.617,303.944 321.117,303.611 320.5,303.5C 321.167,302.833 321.833,302.167 322.5,301.5C 329.224,300.964 335.891,300.298 342.5,299.5 Z"/></g>
<g><path style="opacity:1" fill="#ad8d6d" d="M 359.5,301.5 C 359.965,307.689 359.298,313.689 357.5,319.5C 352.305,319.821 347.305,319.487 342.5,318.5C 342.763,314.4 342.43,310.4 341.5,306.5C 342.766,305.91 344.099,305.41 345.5,305C 345.043,304.586 344.709,304.086 344.5,303.5C 349.477,302.593 354.477,301.927 359.5,301.5 Z"/></g>
<g><path style="opacity:1" fill="#7e6f61" d="M 168.5,301.5 C 176.969,303.489 185.302,305.989 193.5,309C 196.938,309.92 199.938,311.587 202.5,314C 198.446,313.991 194.446,313.324 190.5,312C 181.423,308.989 172.423,306.155 163.5,303.5C 165.167,302.833 166.833,302.167 168.5,301.5 Z"/></g>
<g><path style="opacity:1" fill="#b6926e" d="M 143.5,299.5 C 148.427,300.319 153.094,301.652 157.5,303.5C 155.758,308.308 155.091,313.308 155.5,318.5C 149.266,319.807 142.932,319.807 136.5,318.5C 137.843,311.806 140.176,305.473 143.5,299.5 Z"/></g>
<g><path style="opacity:1" fill="#807162" d="M 338.5,304.5 C 333.785,304.506 329.118,305.006 324.5,306C 315.48,308.729 306.48,311.562 297.5,314.5C 296.068,314.267 295.568,313.6 296,312.5C 303.916,308.806 312.083,305.806 320.5,303.5C 321.117,303.611 321.617,303.944 322,304.5C 327.576,301.976 333.076,301.976 338.5,304.5 Z"/></g>
<g><path style="opacity:1" fill="#6d5f57" d="M 286.5,312.5 C 291.043,314.531 293.877,317.864 295,322.5C 291.558,319.568 288.725,316.235 286.5,312.5 Z"/></g>
<g><path style="opacity:1" fill="#6c5f58" d="M 209.5,314.5 C 210.525,314.897 210.692,315.563 210,316.5C 207.46,318.705 205.293,321.205 203.5,324C 202.833,324.667 202.167,324.667 201.5,324C 204.002,320.667 206.668,317.501 209.5,314.5 Z"/></g>
<g><path style="opacity:1" fill="#715c53" d="M 225.5,303.5 C 231.893,306.201 237.893,309.701 243.5,314C 247.805,315.923 252.138,315.923 256.5,314C 260.814,310.176 265.481,306.843 270.5,304C 271.635,303.251 272.635,303.417 273.5,304.5C 266.848,311.652 260.015,318.652 253,325.5C 251.414,332.057 251.08,338.724 252,345.5C 252.93,347.552 254.43,349.052 256.5,350C 260.723,351.944 265.056,353.611 269.5,355C 273.661,355.667 277.661,355.167 281.5,353.5C 281.439,355.592 280.439,357.092 278.5,358C 275.893,358.818 273.226,359.318 270.5,359.5C 263.435,357.867 256.602,355.534 250,352.5C 243.65,355.061 237.15,357.228 230.5,359C 228.421,359.808 226.421,359.641 224.5,358.5C 225.5,357.667 226.5,356.833 227.5,356C 233.579,353.863 239.579,351.529 245.5,349C 246.126,348.25 246.626,347.416 247,346.5C 247.924,339.392 247.591,332.392 246,325.5C 239.031,319.532 232.364,313.199 226,306.5C 225.517,305.552 225.351,304.552 225.5,303.5 Z"/></g>
<g><path style="opacity:1" fill="#77665c" d="M 342.5,318.5 C 347.305,319.487 352.305,319.821 357.5,319.5C 362.786,320.338 368.119,321.505 373.5,323C 372.056,324.064 370.389,324.564 368.5,324.5C 364.855,323.884 361.188,323.55 357.5,323.5C 350.335,322.59 343.002,321.923 335.5,321.5C 323.814,321.832 312.148,321.499 300.5,320.5C 301.167,320.167 301.833,319.833 302.5,319.5C 315.803,318.536 329.136,318.203 342.5,318.5 Z"/></g>
<g><path style="opacity:1" fill="#796555" d="M 136.5,318.5 C 142.932,319.807 149.266,319.807 155.5,318.5C 165.839,318.334 176.172,318.5 186.5,319C 190.701,319.074 194.701,319.907 198.5,321.5C 184.705,321.344 171.038,321.677 157.5,322.5C 150.814,322.527 144.148,322.861 137.5,323.5C 133.774,323.823 130.107,323.489 126.5,322.5C 126.709,321.914 127.043,321.414 127.5,321C 130.992,321.07 133.992,320.237 136.5,318.5 Z"/></g>
<g><path style="opacity:1" fill="#b69471" d="M 157.5,322.5 C 157.673,326.747 159.339,330.08 162.5,332.5C 162.5,332.833 162.5,333.167 162.5,333.5C 156.573,335.148 150.573,336.482 144.5,337.5C 142.645,335.967 140.812,334.3 139,332.5C 138.304,329.522 137.804,326.522 137.5,323.5C 144.148,322.861 150.814,322.527 157.5,322.5 Z"/></g>
<g><path style="opacity:1" fill="#7b6958" d="M 163.5,336.5 C 163.167,336.5 162.833,336.5 162.5,336.5C 162.5,335.5 162.5,334.5 162.5,333.5C 162.5,333.167 162.5,332.833 162.5,332.5C 171.497,331.068 180.497,329.568 189.5,328C 192.882,327.176 196.216,327.343 199.5,328.5C 199.291,329.086 198.957,329.586 198.5,330C 186.74,331.738 175.073,333.904 163.5,336.5 Z"/></g>
<g><path style="opacity:1" fill="#88756b" d="M 333.5,331.5 C 333.5,331.833 333.5,332.167 333.5,332.5C 333.443,333.609 333.11,334.609 332.5,335.5C 322.216,333.143 311.883,330.976 301.5,329C 301.043,328.586 300.709,328.086 300.5,327.5C 301.667,327.167 302.833,326.833 304,326.5C 313.966,327.46 323.799,329.127 333.5,331.5 Z"/></g>
<g><path style="opacity:1" fill="#605a57" d="M 287.5,330.5 C 288.043,330.56 288.376,330.893 288.5,331.5C 286.623,335.88 283.79,339.547 280,342.5C 279.685,341.092 280.018,339.759 281,338.5C 283.001,335.669 285.167,333.003 287.5,330.5 Z"/></g>
<g><path style="opacity:1" fill="#765b41" d="M 162.5,333.5 C 162.5,334.5 162.5,335.5 162.5,336.5C 156.808,338.06 151.141,339.727 145.5,341.5C 144.5,341.5 143.5,341.5 142.5,341.5C 142.611,340.883 142.944,340.383 143.5,340C 142.584,339.722 141.918,339.222 141.5,338.5C 142.609,338.443 143.609,338.11 144.5,337.5C 150.573,336.482 156.573,335.148 162.5,333.5 Z"/></g>
<g><path style="opacity:1" fill="#836346" d="M 333.5,332.5 C 342.959,334.819 352.292,337.652 361.5,341C 366.103,342.025 367.77,344.525 366.5,348.5C 362.519,346.013 358.185,344.346 353.5,343.5C 346.526,340.841 339.526,338.174 332.5,335.5C 333.11,334.609 333.443,333.609 333.5,332.5 Z"/></g>
<g><path style="opacity:1" fill="#826d61" d="M 325.5,341.5 C 325.218,342.778 324.551,343.778 323.5,344.5C 315.045,341.106 306.712,337.439 298.5,333.5C 307.859,334.504 316.859,337.171 325.5,341.5 Z"/></g>
<g><path style="opacity:1" fill="#7c7062" d="M 141.5,338.5 C 141.918,339.222 142.584,339.722 143.5,340C 142.944,340.383 142.611,340.883 142.5,341.5C 137.596,343.649 132.596,344.649 127.5,344.5C 131.746,341.529 136.413,339.529 141.5,338.5 Z"/></g>
<g><path style="opacity:1" fill="#b6946f" d="M 162.5,336.5 C 162.833,336.5 163.167,336.5 163.5,336.5C 164.41,339.992 166.076,342.992 168.5,345.5C 168.167,346.167 167.833,346.833 167.5,347.5C 161.495,348.675 155.828,350.675 150.5,353.5C 150.804,352.85 151.137,352.183 151.5,351.5C 149.489,348.139 147.489,344.806 145.5,341.5C 151.141,339.727 156.808,338.06 162.5,336.5 Z"/></g>
<g><path style="opacity:1" fill="#776a59" d="M 171.5,348.5 C 171.167,348.5 170.833,348.5 170.5,348.5C 169.791,347.596 168.791,347.263 167.5,347.5C 167.833,346.833 168.167,346.167 168.5,345.5C 179.279,340.183 190.612,337.016 202.5,336C 192.292,340.459 181.958,344.625 171.5,348.5 Z"/></g>
<g><path style="opacity:1" fill="#7e6e5f" d="M 316.5,350.5 C 315.207,350.875 313.874,351.208 312.5,351.5C 307.723,348.94 303.056,346.107 298.5,343C 296.063,341.721 295.563,340.221 297,338.5C 303.815,342.149 310.315,346.149 316.5,350.5 Z"/></g>
<g><path style="opacity:1" fill="#7d5f41" d="M 325.5,341.5 C 326.5,341.5 327.5,341.5 328.5,341.5C 328.953,342.458 329.619,343.292 330.5,344C 340.339,348.084 349.672,352.918 358.5,358.5C 356.926,359.631 355.259,359.798 353.5,359C 343.456,354.298 333.789,349.798 324.5,345.5C 324.5,344.833 324.167,344.5 323.5,344.5C 324.551,343.778 325.218,342.778 325.5,341.5 Z"/></g>
<g><path style="opacity:1" fill="#776454" d="M 180.5,359.5 C 180.167,359.5 179.833,359.5 179.5,359.5C 179.443,358.391 179.11,357.391 178.5,356.5C 185.775,351.522 193.441,347.022 201.5,343C 202.635,342.251 203.635,342.417 204.5,343.5C 196.508,348.83 188.508,354.164 180.5,359.5 Z"/></g>
<g><path style="opacity:1" fill="#7f6248" d="M 316.5,350.5 C 317.391,351.11 318.391,351.443 319.5,351.5C 327.164,356.674 334.498,362.341 341.5,368.5C 340.277,369.614 338.944,369.781 337.5,369C 330.278,364.227 322.945,359.727 315.5,355.5C 314.5,354.167 313.5,352.833 312.5,351.5C 313.874,351.208 315.207,350.875 316.5,350.5 Z"/></g>
<g><path style="opacity:1" fill="#755a44" d="M 167.5,347.5 C 168.791,347.263 169.791,347.596 170.5,348.5C 161.803,352.414 153.137,356.081 144.5,359.5C 141.012,361.277 137.346,362.111 133.5,362C 138.639,358.12 144.306,355.286 150.5,353.5C 155.828,350.675 161.495,348.675 167.5,347.5 Z"/></g>
<g><path style="opacity:1" fill="#6d6155" d="M 210.5,353.5 C 212.646,353.696 212.812,354.696 211,356.5C 207.657,360.673 204.157,364.673 200.5,368.5C 199.592,367.21 199.759,365.877 201,364.5C 204.002,360.666 207.169,357 210.5,353.5 Z"/></g>
<g><path style="opacity:1" fill="#fdfdfc" d="M 164.5,366.5 C 162.513,367.164 160.846,368.331 159.5,370C 160.833,370.667 162.167,370.667 163.5,370C 164.693,368.905 166.027,368.072 167.5,367.5C 173.82,368.217 179.82,370.051 185.5,373C 191.234,377.188 196.901,381.354 202.5,385.5C 200.681,386.936 200.348,388.603 201.5,390.5C 203.186,389.143 204.852,387.81 206.5,386.5C 232.752,403.381 261.418,409.214 292.5,404C 301.995,410.143 306.995,418.976 307.5,430.5C 307.221,439.015 304.221,446.349 298.5,452.5C 296.075,455.046 293.075,456.546 289.5,457C 240.391,466.746 193.724,460.08 149.5,437C 149.043,436.586 148.709,436.086 148.5,435.5C 158.925,412.839 156.425,411.506 141,431.5C 142.365,417.581 147.198,404.914 155.5,393.5C 153.813,392.432 152.146,392.599 150.5,394C 145.917,397.912 142.083,402.412 139,407.5C 142.314,390.223 147.648,373.556 155,357.5C 158.22,360.648 161.386,363.648 164.5,366.5 Z"/></g>
<g><path style="opacity:1" fill="#755b40" d="M 177.5,356.5 C 177.833,356.5 178.167,356.5 178.5,356.5C 179.11,357.391 179.443,358.391 179.5,359.5C 175.534,362.155 171.534,364.821 167.5,367.5C 166.027,368.072 164.693,368.905 163.5,370C 162.167,370.667 160.833,370.667 159.5,370C 160.846,368.331 162.513,367.164 164.5,366.5C 167.923,363.945 171.59,361.612 175.5,359.5C 176.425,358.643 177.092,357.643 177.5,356.5 Z"/></g>
<g><path style="opacity:1" fill="#b79573" d="M 179.5,359.5 C 179.833,359.5 180.167,359.5 180.5,359.5C 189.104,366.81 198.437,373.143 208.5,378.5C 207.219,381.447 205.219,383.781 202.5,385.5C 196.901,381.354 191.234,377.188 185.5,373C 179.82,370.051 173.82,368.217 167.5,367.5C 171.534,364.821 175.534,362.155 179.5,359.5 Z"/></g>
<g><path style="opacity:1" fill="#7b644f" d="M 309.5,361.5 C 309.351,362.552 309.517,363.552 310,364.5C 314,368.5 318,372.5 322,376.5C 322.749,377.635 322.583,378.635 321.5,379.5C 315.851,375.183 310.517,370.517 305.5,365.5C 299.494,358.827 293.161,352.494 286.5,346.5C 287.365,345.417 288.365,345.251 289.5,346C 296.061,351.406 302.728,356.572 309.5,361.5 Z"/></g>
<g><path style="opacity:1" fill="#faf8f3" d="M 353.5,343.5 C 358.185,344.346 362.519,346.013 366.5,348.5C 380.384,356.881 391.884,367.881 401,381.5C 403.332,384.822 404.498,388.489 404.5,392.5C 403.262,393.412 401.928,393.579 400.5,393C 396.387,386.553 391.887,380.386 387,374.5C 377.484,365.004 367.317,356.337 356.5,348.5C 355.048,347.06 354.048,345.394 353.5,343.5 Z"/></g>
<g><path style="opacity:1" fill="#b79570" d="M 332.5,335.5 C 339.526,338.174 346.526,340.841 353.5,343.5C 354.048,345.394 355.048,347.06 356.5,348.5C 367.317,356.337 377.484,365.004 387,374.5C 391.887,380.386 396.387,386.553 400.5,393C 401.928,393.579 403.262,393.412 404.5,392.5C 404.586,393.496 404.252,394.329 403.5,395C 404.766,395.309 405.933,395.809 407,396.5C 408.067,395.809 409.234,395.309 410.5,395C 410.285,392.974 409.285,390.974 407.5,389C 407.833,388.5 408.167,388 408.5,387.5C 411.35,386.072 412.35,386.739 411.5,389.5C 412.242,390.287 413.075,390.953 414,391.5C 414.667,390.167 415.333,388.833 416,387.5C 416.667,388.833 416.667,390.167 416,391.5C 411.195,393.47 411.361,394.803 416.5,395.5C 413.222,397.558 412.889,400.558 415.5,404.5C 417.367,401.771 418.367,402.104 418.5,405.5C 416.418,405.472 414.584,406.139 413,407.5C 411.513,406.747 411.346,405.914 412.5,405C 411.552,404.517 410.552,404.351 409.5,404.5C 408.995,407.343 407.995,410.01 406.5,412.5C 406.667,413.167 406.833,413.833 407,414.5C 408.22,412.143 409.053,412.476 409.5,415.5C 387.838,437.343 362.505,453.676 333.5,464.5C 330.315,464.02 327.481,464.686 325,466.5C 323.812,465.437 323.312,464.103 323.5,462.5C 317.931,462.512 312.431,463.179 307,464.5C 303.337,464.001 299.837,463.835 296.5,464C 298.116,463.385 299.449,462.385 300.5,461C 297.622,458.479 296.955,455.645 298.5,452.5C 304.221,446.349 307.221,439.015 307.5,430.5C 306.995,418.976 301.995,410.143 292.5,404C 261.418,409.214 232.752,403.381 206.5,386.5C 208.273,383.94 210.273,381.607 212.5,379.5C 228.086,388.11 244.753,390.61 262.5,387C 278.513,382.993 292.847,375.827 305.5,365.5C 310.517,370.517 315.851,375.183 321.5,379.5C 322.583,378.635 322.749,377.635 322,376.5C 318,372.5 314,368.5 310,364.5C 309.517,363.552 309.351,362.552 309.5,361.5C 311.167,359.167 313.167,357.167 315.5,355.5C 322.945,359.727 330.278,364.227 337.5,369C 338.944,369.781 340.277,369.614 341.5,368.5C 334.498,362.341 327.164,356.674 319.5,351.5C 321.196,349.475 322.863,347.475 324.5,345.5C 333.789,349.798 343.456,354.298 353.5,359C 355.259,359.798 356.926,359.631 358.5,358.5C 349.672,352.918 340.339,348.084 330.5,344C 329.619,343.292 328.953,342.458 328.5,341.5C 330.226,339.772 331.559,337.772 332.5,335.5 Z"/></g>
<g><path style="opacity:1" fill="#765e46" d="M 212.5,379.5 C 210.273,381.607 208.273,383.94 206.5,386.5C 204.852,387.81 203.186,389.143 201.5,390.5C 200.348,388.603 200.681,386.936 202.5,385.5C 205.219,383.781 207.219,381.447 208.5,378.5C 209.857,377.315 211.357,376.315 213,375.5C 213.5,375.833 214,376.167 214.5,376.5C 213.807,377.518 213.141,378.518 212.5,379.5 Z"/></g>
<g><path style="opacity:1" fill="#b79671" d="M 47.5,187.5 C 34.3137,222.806 31.9803,258.806 40.5,295.5C 52.7276,348.803 81.0609,391.303 125.5,423C 126.448,423.483 127.448,423.649 128.5,423.5C 128.715,412.588 130.548,401.922 134,391.5C 137.538,381.051 141.372,370.718 145.5,360.5C 145.376,359.893 145.043,359.56 144.5,359.5C 153.137,356.081 161.803,352.414 170.5,348.5C 170.833,348.5 171.167,348.5 171.5,348.5C 173.5,351.167 175.5,353.833 177.5,356.5C 177.092,357.643 176.425,358.643 175.5,359.5C 171.59,361.612 167.923,363.945 164.5,366.5C 161.386,363.648 158.22,360.648 155,357.5C 147.648,373.556 142.314,390.223 139,407.5C 142.083,402.412 145.917,397.912 150.5,394C 152.146,392.599 153.813,392.432 155.5,393.5C 147.198,404.914 142.365,417.581 141,431.5C 156.425,411.506 158.925,412.839 148.5,435.5C 148.709,436.086 149.043,436.586 149.5,437C 193.724,460.08 240.391,466.746 289.5,457C 293.075,456.546 296.075,455.046 298.5,452.5C 296.955,455.645 297.622,458.479 300.5,461C 299.449,462.385 298.116,463.385 296.5,464C 299.837,463.835 303.337,464.001 307,464.5C 312.431,463.179 317.931,462.512 323.5,462.5C 323.312,464.103 323.812,465.437 325,466.5C 327.481,464.686 330.315,464.02 333.5,464.5C 321.636,469.676 309.303,473.676 296.5,476.5C 275.688,480.357 254.688,482.024 233.5,481.5C 150.222,473.306 87.0558,433.64 44,362.5C 5.08068,288.265 6.08068,214.598 47,141.5C 63.4659,114.531 84.6326,91.8644 110.5,73.5C 112.867,81.0536 113.533,88.7203 112.5,96.5C 82.2241,120.731 60.5574,151.065 47.5,187.5 Z"/></g>
<g><path style="opacity:1" fill="#f7f1e5" d="M 296.5,476.5 C 295.909,477.151 295.243,477.818 294.5,478.5C 284.901,479.975 275.401,481.642 266,483.5C 255.703,483.331 244.869,482.664 233.5,481.5C 254.688,482.024 275.688,480.357 296.5,476.5 Z"/></g>
</svg>
